<svg width="243" height="51" viewBox="0 0 243 51" fill="none" xmlns="http://www.w3.org/2000/svg">
<path d="M0.833333 46.6518C0.833333 48.1246 2.02724 49.3185 3.5 49.3185C4.97276 49.3185 6.16667 48.1246 6.16667 46.6518C6.16667 45.1791 4.97276 43.9852 3.5 43.9852C2.02724 43.9852 0.833333 45.1791 0.833333 46.6518ZM116.774 50L116.466 50.3937C116.576 50.4797 116.717 50.5159 116.854 50.4935C116.992 50.4712 117.114 50.3923 117.191 50.2759L116.774 50ZM240.347 48.9541C240.61 49.0387 240.891 48.8942 240.976 48.6313L242.354 44.3475C242.439 44.0846 242.294 43.803 242.031 43.7184C241.768 43.6338 241.487 43.7784 241.402 44.0413L240.177 47.8491L236.369 46.6241C236.106 46.5395 235.825 46.684 235.74 46.9469C235.656 47.2098 235.8 47.4915 236.063 47.576L240.347 48.9541ZM5.36188 45.8428C5.58042 45.674 5.62072 45.36 5.45191 45.1415C5.2831 44.9229 4.96909 44.8826 4.75056 45.0514L5.36188 45.8428ZM14.2568 37.9771C14.0308 38.1357 13.9762 38.4476 14.1349 38.6736C14.2935 38.8996 14.6054 38.9542 14.8314 38.7955L14.2568 37.9771ZM18.0769 36.5817C18.3072 36.4294 18.3705 36.1192 18.2182 35.8888C18.066 35.6585 17.7558 35.5952 17.5254 35.7475L18.0769 36.5817ZM27.7874 29.7626C27.5403 29.8858 27.4398 30.186 27.5631 30.4331C27.6863 30.6803 27.9865 30.7807 28.2337 30.6575L27.7874 29.7626ZM31.7816 29.001C32.0349 28.8909 32.151 28.5964 32.0409 28.3431C31.9308 28.0899 31.6363 27.9738 31.383 28.0839L31.7816 29.001ZM42.6792 24.3442C42.4099 24.4053 42.2412 24.6732 42.3023 24.9424C42.3635 25.2117 42.6313 25.3805 42.9006 25.3193L42.6792 24.3442ZM46.737 24.585C47.0099 24.5424 47.1966 24.2867 47.154 24.0139C47.1114 23.741 46.8558 23.5544 46.5829 23.5969L46.737 24.585ZM58.4839 22.9875C58.2081 22.9735 57.9732 23.1858 57.9592 23.4616C57.9453 23.7374 58.1575 23.9723 58.4333 23.9862L58.4839 22.9875ZM62.3274 24.3098C62.6017 24.3414 62.8497 24.1446 62.8813 23.8703C62.9129 23.596 62.7161 23.348 62.4418 23.3164L62.3274 24.3098ZM74.0987 25.7064C73.8336 25.6291 73.5561 25.7814 73.4788 26.0465C73.4015 26.3116 73.5538 26.5892 73.8189 26.6664L74.0987 25.7064ZM77.5438 27.8511C77.8049 27.9409 78.0894 27.8021 78.1793 27.541C78.2691 27.2799 78.1303 26.9954 77.8692 26.9055L77.5438 27.8511ZM88.8194 31.465C88.571 31.3443 88.2719 31.4478 88.1512 31.6962C88.0305 31.9446 88.1341 32.2438 88.3825 32.3644L88.8194 31.465ZM91.8977 34.1471C92.1419 34.2761 92.4444 34.1827 92.5733 33.9385C92.7023 33.6943 92.6089 33.3918 92.3647 33.2629L91.8977 34.1471ZM102.59 39.2553C102.358 39.1062 102.049 39.1737 101.9 39.4061C101.75 39.6385 101.818 39.9478 102.05 40.0969L102.59 39.2553ZM105.341 42.2655C105.57 42.4202 105.881 42.3601 106.035 42.1313C106.19 41.9025 106.13 41.5917 105.901 41.437L105.341 42.2655ZM115.492 48.372C115.273 48.2037 114.959 48.2447 114.79 48.4637C114.622 48.6826 114.663 48.9965 114.882 49.1648L115.492 48.372ZM118.311 48.6086C118.466 48.3804 118.407 48.0693 118.179 47.9138C117.951 47.7584 117.64 47.8174 117.484 48.0456L118.311 48.6086ZM124.821 38.1104C124.648 38.3263 124.684 38.6409 124.9 38.813C125.116 38.9852 125.43 38.9497 125.602 38.7338L124.821 38.1104ZM128.189 35.5709C128.366 35.3593 128.338 35.044 128.127 34.8665C127.915 34.6891 127.6 34.7167 127.422 34.9283L128.189 35.5709ZM135.714 25.7988C135.52 25.9953 135.523 26.3119 135.719 26.5059C135.916 26.6999 136.232 26.6978 136.426 26.5013L135.714 25.7988ZM139.34 23.6372C139.539 23.4466 139.547 23.1301 139.356 22.9303C139.166 22.7304 138.849 22.7228 138.65 22.9133L139.34 23.6372ZM148.013 14.8627C147.793 15.0307 147.752 15.3446 147.92 15.5637C148.088 15.7828 148.402 15.8242 148.621 15.6561L148.013 14.8627ZM151.907 13.2434C152.133 13.0848 152.188 12.773 152.029 12.5469C151.87 12.3209 151.559 12.2662 151.333 12.4247L151.907 13.2434ZM161.958 6.09751C161.709 6.2187 161.607 6.51809 161.728 6.76622C161.849 7.01435 162.148 7.11725 162.396 6.99606L161.958 6.09751ZM166.104 5.32842C166.36 5.22348 166.482 4.93135 166.377 4.67592C166.272 4.4205 165.98 4.29849 165.724 4.40343L166.104 5.32842ZM177.634 1.02018C177.361 1.06224 177.174 1.31758 177.216 1.5905C177.258 1.86342 177.513 2.05057 177.786 2.00851L177.634 1.02018ZM181.812 1.57593C182.088 1.55932 182.298 1.32241 182.281 1.04677C182.265 0.771125 182.028 0.561132 181.752 0.577735L181.812 1.57593ZM194.099 1.66581C193.83 1.60078 193.56 1.76562 193.495 2.034C193.43 2.30237 193.595 2.57265 193.863 2.63768L194.099 1.66581ZM197.736 3.77886C197.997 3.86955 198.282 3.73162 198.373 3.4708C198.464 3.20997 198.326 2.92501 198.065 2.83433L197.736 3.77886ZM209.137 8.42266C208.908 8.26912 208.597 8.3307 208.444 8.56022C208.29 8.78974 208.352 9.10027 208.581 9.25382L209.137 8.42266ZM211.858 11.6181C212.076 11.7872 212.39 11.7474 212.559 11.5291C212.728 11.3109 212.688 10.9968 212.47 10.8276L211.858 11.6181ZM221.518 19.2307C221.331 19.0273 221.015 19.0137 220.812 19.2004C220.608 19.3872 220.595 19.7035 220.781 19.9069L221.518 19.2307ZM223.462 22.9645C223.64 23.1761 223.955 23.2037 224.167 23.0263C224.378 22.8489 224.406 22.5335 224.228 22.3219L223.462 22.9645ZM231.628 32.2538C231.474 32.0241 231.164 31.9622 230.934 32.1154C230.704 32.2687 230.642 32.5792 230.796 32.8089L231.628 32.2538ZM232.977 36.1857C233.124 36.4198 233.432 36.4908 233.667 36.3443C233.901 36.1978 233.972 35.8893 233.825 35.6552L232.977 36.1857ZM239.966 46.3685C239.838 46.1242 239.535 46.0306 239.291 46.1593C239.047 46.2881 238.953 46.5905 239.082 46.8348L239.966 46.3685ZM3.80637 47.047C4.32316 46.6463 4.84157 46.2447 5.36188 45.8428L4.75056 45.0514C4.22957 45.4539 3.71063 45.8559 3.19363 46.2567L3.80637 47.047ZM14.8314 38.7955C15.9013 38.0444 16.9826 37.305 18.0769 36.5817L17.5254 35.7475C16.4225 36.4765 15.3334 37.2212 14.2568 37.9771L14.8314 38.7955ZM28.2337 30.6575C29.3992 30.0762 30.5814 29.5227 31.7816 29.001L31.383 28.0839C30.1658 28.613 28.9677 29.1739 27.7874 29.7626L28.2337 30.6575ZM42.9006 25.3193C44.1587 25.0337 45.4371 24.7877 46.737 24.585L46.5829 23.5969C45.2599 23.8033 43.9591 24.0536 42.6792 24.3442L42.9006 25.3193ZM58.4333 23.9862C59.7109 24.0509 61.0086 24.158 62.3274 24.3098L62.4418 23.3164C61.102 23.1621 59.7829 23.0533 58.4839 22.9875L58.4333 23.9862ZM73.8189 26.6664C75.0433 27.0234 76.2848 27.4177 77.5438 27.8511L77.8692 26.9055C76.5955 26.4671 75.3388 26.0679 74.0987 25.7064L73.8189 26.6664ZM88.3825 32.3644C89.5403 32.9269 90.712 33.5208 91.8977 34.1471L92.3647 33.2629C91.1693 32.6315 89.9877 32.0325 88.8194 31.465L88.3825 32.3644ZM102.05 40.0969C103.136 40.7938 104.233 41.5165 105.341 42.2655L105.901 41.437C104.787 40.6837 103.683 39.9566 102.59 39.2553L102.05 40.0969ZM114.882 49.1648C115.408 49.5688 115.936 49.9784 116.466 50.3937L117.082 49.6064C116.55 49.1892 116.02 48.7778 115.492 48.372L114.882 49.1648ZM117.191 50.2759C117.55 49.7328 117.924 49.1766 118.311 48.6086L117.484 48.0456C117.095 48.6173 116.719 49.1773 116.357 49.7242L117.191 50.2759ZM125.602 38.7338C126.435 37.6895 127.297 36.6335 128.189 35.5709L127.422 34.9283C126.526 35.9974 125.658 37.0599 124.821 38.1104L125.602 38.7338ZM136.426 26.5013C137.377 25.5379 138.349 24.5818 139.34 23.6372L138.65 22.9133C137.651 23.8653 136.672 24.8285 135.714 25.7988L136.426 26.5013ZM148.621 15.6561C149.701 14.8278 150.797 14.0223 151.907 13.2434L151.333 12.4247C150.21 13.2121 149.103 14.0261 148.013 14.8627L148.621 15.6561ZM162.396 6.99606C163.621 6.39814 164.857 5.84088 166.104 5.32842L165.724 4.40343C164.456 4.92446 163.2 5.49061 161.958 6.09751L162.396 6.99606ZM177.786 2.00851C179.12 1.80288 180.463 1.65722 181.812 1.57593L181.752 0.577735C180.371 0.660945 178.998 0.809991 177.634 1.02018L177.786 2.00851ZM193.863 2.63768C195.151 2.94965 196.442 3.32881 197.736 3.77886L198.065 2.83433C196.74 2.37371 195.418 1.98542 194.099 1.66581L193.863 2.63768ZM208.581 9.25382C209.673 9.98417 210.765 10.7715 211.858 11.6181L212.47 10.8276C211.36 9.96726 210.249 9.16629 209.137 8.42266L208.581 9.25382ZM220.781 19.9069C221.676 20.8816 222.57 21.9004 223.462 22.9645L224.228 22.3219C223.327 21.2468 222.423 20.2167 221.518 19.2307L220.781 19.9069ZM230.796 32.8089C231.525 33.9011 232.252 35.0265 232.977 36.1857L233.825 35.6552C233.094 34.488 232.362 33.3544 231.628 32.2538L230.796 32.8089ZM239.082 46.8348C239.407 47.4513 239.731 48.0751 240.055 48.7065L240.945 48.2499C240.619 47.6154 240.293 46.9883 239.966 46.3685L239.082 46.8348Z" fill="#7F56D9"/>
</svg>
